# xmcd CD database file
#
# Track frame offsets:
#	150
#	16042
#	25875
#	40464
#	60581
#	74641
#	90839
#	105367
#
# Disc length: 1616 seconds
#
# Revision: 1
# Processed by: cddbd v1.5.2PL0 Copyright (c) Steve Scherf et al.
# Submitted via: CDex 1.70beta2
#
DISCID=59064e08
DTITLE=Dorota Krawczyk - Never Give Up!
DYEAR=2011
DGENRE=Country
TTITLE0=Never Give Up
TTITLE1=Ślady naszych łap
TTITLE2=Wild Angels
TTITLE3=Cały świat, ty i ja (feat. Lonstar)
TTITLE4=Billy Loves His Car
TTITLE5=Mamo... córko...
TTITLE6=Independence Day
TTITLE7=Any Man Of Mine
EXTD=YEAR: 2011
EXTT0=
EXTT1=
EXTT2=
EXTT3=
EXTT4=
EXTT5=
EXTT6=
EXTT7=
PLAYORDER=
